<?xml version="1.0" encoding="UTF-8"?>
<!-- Generated by Pixelmator Pro 4.2 -->
<svg width="635" height="482" viewBox="0 0 635 482" xmlns="http://www.w3.org/2000/svg">
    <path id="Path" fill="#d97706" stroke="none" d="M 327.411011 109.535034 C 355.278015 108.615967 383.840027 109.916992 411.799011 109.365967 C 423.539001 109.134033 436.637024 109.046021 448.343994 109.614014 C 448.651001 114.273987 448.137024 121.437988 447.888977 126.327026 C 455 124.666992 464.09198 123.536987 471.351013 124.362 C 481.348999 125.485962 490.473022 130.585999 496.66803 138.513 C 499.346008 141.885986 502.383972 146.967041 503.518982 151.096008 C 514.26001 190.165039 489.460999 223.392029 452.937012 235.747986 C 440.458984 239.969971 431.094971 239.679016 418.557007 237.987 C 417.882019 239.22699 417.182007 240.453003 416.458984 241.666016 C 400.26001 268.932007 374.03302 288.775024 343.390015 296.948975 C 341.47998 297.455017 339.559021 297.916992 337.627991 298.333984 C 266.524994 313.565979 198.003998 276.875977 180.673004 204.89801 C 179.282013 199.124023 176.338989 193.479004 175.074005 187.396973 C 182.97699 189.742004 191.582001 194.162964 199.567993 195.703003 C 261.589996 207.664001 312.993011 168.233032 327.411011 109.535034 Z M 430.473022 212.592041 C 438.195007 213.062012 442.226013 212.458984 449.640991 209.829956 C 458.245972 205.796997 462.234985 202.807007 468.687012 195.760986 C 482.140991 181.06897 483.288025 149.266968 455.64502 151.169006 C 451.630005 151.703979 449.338989 152.202026 445.460999 153.596985 C 443.927979 168.365967 442.064026 179.817993 437.31897 194.010986 C 435.390015 199.780029 431.98999 207.144043 430.473022 212.592041 Z"/>
    <path id="path1" fill="#92400e" stroke="none" d="M 212.928986 5.218018 C 233.528992 4.325989 255.654999 8.69397 272.161011 21.700012 C 266.338989 27.131958 260.641998 32.697998 255.075012 38.391968 C 246.993988 34.919006 240.309998 32.051025 231.579987 30.80896 C 196.216003 25.776001 160.678009 46.93103 155.885986 83.947021 C 153.407013 102.005005 159.119995 119.915039 170.270996 134.254028 C 191.911987 162.082031 235.559998 167.212036 263.255005 145.48999 C 272.915009 137.912964 280.562988 127.130005 285.059998 115.77002 C 288.196991 107.848022 289.031006 100.940002 289.936005 92.596985 C 293.980988 87.664001 297.371002 84.348999 301.895996 79.817017 C 304.851013 76.661987 307.828003 73.526978 310.826996 70.414001 C 311.485992 73.735962 312.01001 77.083984 312.39801 80.447998 C 316.774994 119.247986 294.669006 160.723022 258.102997 175.631958 C 249.761993 179.031982 241.109985 180.955994 232.184998 181.94397 C 208.584991 184.718994 184.846985 178.025024 166.174011 163.328003 C 103.282013 112.855957 131.045013 13.557983 212.928986 5.218018 Z"/>
    <path id="path2" fill="#d97706" stroke="none" d="M 311.002014 0.803955 C 315.144012 1.18396 333.179016 23.155029 332.518982 28.242004 C 329.30603 32.148987 323.357971 37.752991 319.567993 41.55896 C 311.480011 49.613037 303.462006 57.738037 295.515015 65.932007 L 249.838989 112.752991 C 241.404999 121.394043 233.186005 130.579956 224.324005 138.750977 C 223.010986 139.960999 221.368988 141.223999 219.519012 141.39502 C 214.561005 141.85199 193.356995 120.23999 188.341003 115.473022 C 183.375 110.578979 168.372009 97.648987 166.553009 92.440002 C 166.72699 87.89801 189.851013 68.869995 192.42099 70.442993 C 200.251007 75.238037 210.17099 89.14801 217.218994 96.042969 C 241.161987 72.515991 264.100006 47.69104 287.755005 23.898987 C 294.114014 17.502991 304.570007 6.370972 311.002014 0.803955 Z"/>
    <path id="path3" fill="#3b1a08" stroke="none" d="M 38.494003 374.200012 C 75.209991 375.367004 89.608002 414.05603 65.631012 440.18103 C 69.628998 443.676025 73.955994 446.856995 78.190002 450.070007 C 77.101013 452.242981 75.785004 454.223022 74.488007 456.278992 C 72.200989 454.557983 60.667999 445.679016 58.770004 445.164001 C 50.100006 449.070007 42.880005 450.822021 33.330994 449.874023 C -3.628006 446.205994 -11.014999 393.479004 21.860992 378.116028 C 27.904999 375.291992 31.843994 374.757996 38.494003 374.200012 Z M 52.095001 439.687988 C 46.710007 435.642029 44.289001 434.075012 38.164001 431.367004 C 34.084 429.999023 33.399994 429.768005 29.130997 429.182007 L 29.125 420.841003 C 41.468994 423.755005 48.570999 427.284973 59.078995 434.757996 C 65.213013 429.070984 68.782013 421.142029 68.971985 412.780029 C 69.562012 394.257019 55.955002 381.807983 38.054993 381.22699 C -5.360001 385.645996 3.227997 448.624023 43.233002 442.265015 C 46.285995 441.794006 49.264999 440.927979 52.095001 439.687988 Z"/>
    <path id="path4" fill="#92400e" stroke="none" d="M 602.739014 391.215027 C 604.161011 391.106995 605.585022 391.034973 607.01001 390.999023 C 614.125977 390.844971 620.995972 393.611023 626.018982 398.653992 C 644.370972 416.72699 631.648987 453.887024 603.088989 449.445984 C 593.60199 447.971008 590.981995 446.09198 584.963013 439.119019 L 584.979004 456.75 L 585.04303 481.054993 L 576.97699 481.054016 L 576.89801 391.823975 L 584.565002 391.937988 C 584.619995 395.880005 584.66803 398.401978 585.190002 402.278992 C 590.742981 395.041016 593.726013 392.95697 602.739014 391.215027 Z M 609.330017 442.97699 C 633.369019 437.929993 632.953979 395.299011 602.356018 397.612 C 587.166992 401.59198 582.421997 413.958008 585.544006 428.244995 C 587.984985 439.411987 599.393982 443.297974 609.330017 442.97699 Z"/>
    <path id="path5" fill="#92400e" stroke="none" d="M 416.783997 391.140015 C 429.039001 390.27301 434.968018 392.119995 443.364014 401.343994 L 443.796021 391.559021 C 446.554993 391.380005 449.159973 391.494019 451.91803 391.562012 C 452.14502 400.281006 451.448975 411.179993 451.627991 420.359985 C 451.771973 427.728027 452.10498 442.820007 451.468994 449.239014 C 448.958008 449.388977 446.124023 449.348999 443.583984 449.370972 C 443.651001 446.937988 444.164001 441.317017 442.94397 439.468018 L 441.625 440.78302 C 433.385986 450.598999 419.341003 452.234985 408.22699 446.643982 C 393.440002 439.205994 390.283997 417.672974 397.877014 404.122986 C 402.036987 396.700012 408.958984 393.245972 416.783997 391.140015 Z M 427.71698 442.643005 C 428.414001 442.380005 429.034973 442.171021 429.734009 441.921021 C 435.26001 440.007996 439.731018 435.867004 442.060974 430.504028 C 449.112 414.559998 438.195007 396.27301 419.572021 398.088989 C 404.575989 401.435974 400.028015 413.909973 403.119995 427.741028 C 405.862976 440.004028 416.546997 443.927979 427.71698 442.643005 Z"/>
    <path id="path6" fill="#92400e" stroke="none" d="M 490.200989 391.172974 C 501.763 390.166016 510.190979 392.103027 516.398987 402.862 C 522.406982 395.291016 527.414001 390.651978 537.823975 390.896973 C 543.75 390.844971 549.940002 392.463013 554.145996 396.963989 C 561.971008 405.336975 560.731018 418.937012 560.721985 429.539001 C 560.752991 436.086975 560.689026 442.63501 560.531006 449.18103 L 552.95697 449.403015 C 552.940002 441.552002 553.473999 415.263 551.601013 408.91803 C 550.914001 406.630005 549.697998 404.536011 548.051025 402.804993 C 541.757019 396.226013 529.802002 396.27301 523.445007 402.697998 C 517.452026 408.754028 518.778992 419.213013 518.848022 427.125 C 518.841003 434.421997 518.947021 442.005981 518.51001 449.262024 C 516.10199 449.320007 513.403015 449.166992 510.973999 449.083984 C 510.984009 444.31897 511.070984 439.617981 511 434.702026 C 510.810974 421.721985 514.309021 398.067993 495.062012 397.638977 C 476.008972 397.213989 476.393005 414.940979 476.864014 428.75 C 477.083008 435.156982 476.895996 442.650024 476.890015 449.273987 L 468.987 449.13501 L 468.953979 391.807983 C 471.901001 391.64502 474.015015 391.828979 476.927002 392.038025 L 477.117981 399.794006 C 481.593018 394.94397 483.794006 393.018982 490.200989 391.172974 Z"/>
    <path id="path7" fill="#92400e" stroke="none" d="M 319.190002 374.189026 C 332.01001 373.375977 343.09198 378.692993 344.885986 392.47699 C 342.041992 392.525024 339.103027 392.48999 336.249023 392.494019 C 333.495972 383.890015 328.127014 379.958984 319.049011 380.89801 C 310.471985 381.784973 305.136993 386.71698 306.299988 395.58197 C 307.450989 404.349976 317.272003 407.031006 324.426025 408.784973 C 337.179016 411.973999 349.125 418.434998 345.367004 433.81897 C 342.650024 444.942993 333.987 448.458008 323.541016 449.866028 C 308.875 449.877991 301.085999 445.411011 297.419006 430.671021 C 300.407013 430.455017 302.777008 430.598999 305.763 430.734985 C 306.510986 432.896973 307.734009 436.455017 309.34201 438.18103 C 318.574005 448.088989 339.747986 443.242004 337.856995 427.557983 C 336.705017 419.117981 326.435974 416.263 318.852997 414.575989 C 301.768005 410.77301 291.203003 399.226013 301.795013 382.026001 C 304.980011 376.854004 313.097992 374.89502 319.190002 374.189026 Z"/>
    <path id="path8" fill="#3b1a08" stroke="none" d="M 247.208008 370.172974 C 249.414001 369.982971 252.584015 370.044983 254.867004 370.018982 C 255.587006 384.013 253.962006 403.424988 255.394012 416.75 C 262.363007 410.393005 271.276001 399.239014 278.908997 391.823975 C 282.213989 391.43103 284.984985 391.494995 288.303986 391.507019 C 282.416992 399.172974 268.962006 413.140015 261.98999 420.401001 C 266.531006 424.598022 271.598999 430.367004 275.835999 434.986023 C 280.377014 439.755005 284.884003 444.55603 289.356995 449.388977 L 278.641998 449.265991 C 274.957001 444.320984 259.507996 427.916016 255.084991 424.491028 C 254.743011 432.377014 255.123993 440.955994 254.837006 449.103027 L 247.041992 449.077026 C 246.955994 423.468018 246.524994 395.643982 247.208008 370.172974 Z"/>
    <path id="path9" fill="#3b1a08" stroke="none" d="M 132.894989 391.781006 C 135.438995 391.612 137.994995 391.710022 140.548004 391.752991 C 141.009003 396.247986 140.777008 404.101013 140.774994 408.875 C 140.902008 422.315979 140.920013 435.757996 140.82901 449.198975 L 133.016998 449.351013 C 133.016998 446.627014 132.867004 443.72998 132.77301 440.992981 C 119.110992 454.541992 97.059998 453.88501 91.234985 432.526001 C 90.100006 428.366028 90.015015 394.028015 91.290985 392.10498 L 93.540985 391.723022 L 98.623993 391.796997 C 98.944 402.64801 96.026001 429.596985 102.894012 437.710022 C 105.798004 441.140991 110.006012 442.771973 114.424011 442.987976 C 119.304993 443.228027 124.203003 441.98999 127.759003 438.489014 C 130.128998 436.156982 131.652008 433.078003 132.355988 429.846008 C 134.160004 421.567017 132.752991 401.544983 132.894989 391.781006 Z"/>
    <path id="path10" fill="#3b1a08" stroke="none" d="M 204.092987 391.205017 C 218.03299 390.179993 229.955994 396.112 233.921997 410.273987 L 225.394989 410.265991 C 220.82901 400.877991 213.278992 396.140015 202.621002 398.434998 C 197.399994 399.512024 192.871002 402.731018 190.138 407.307983 C 180.635986 423.155029 191.320007 448.708008 215.049011 441.778015 C 220.795013 439.19397 222.132996 437.244019 225.053986 431.892029 C 228.562012 431.52301 230.582001 431.598022 234.097992 431.710022 C 233.221985 433.921997 232.330994 436.267029 231.019012 438.250977 C 227.216003 443.984985 221.261993 447.94397 214.502991 449.231995 C 173.156006 457.34198 164.522003 396.887024 204.092987 391.205017 Z"/>
    <path id="path11" fill="#92400e" stroke="none" d="M 361.479004 377.507996 L 369.713989 377.560974 C 369.866028 381.934021 369.52002 386.796997 369.659973 391.544983 C 374.809998 391.552002 379.960022 391.619995 385.107971 391.749023 C 385.132019 393.724976 385 395.942017 384.927979 397.935974 C 379.778992 397.830017 374.629028 397.617981 369.497986 398.03302 C 369.484009 404.630981 368.245972 436.653015 370.997009 440.257996 C 373.328979 443.312988 379.786987 442.570007 383.106995 442.56897 C 383.971985 442.697998 383.926025 442.778992 384.747986 443.171997 C 385.565002 444.960999 385.151001 447.005981 384.992004 449.026001 C 376.999023 448.989014 363.164001 451.046021 362.155029 439.742981 C 360.947998 426.234985 361.562988 411.995972 361.554016 398.35498 L 355.192993 397.908997 C 355.047974 395.835022 355.200989 393.666992 355.28302 391.580994 L 361.481995 391.453979 L 361.479004 377.507996 Z"/>
    <path id="path12" fill="#3b1a08" stroke="none" d="M 158.186005 391.981018 C 160.621002 391.888977 163.403015 391.997009 165.865997 392.033997 C 166.424988 406.109009 165.757996 420.395996 166.161011 434.489014 C 166.299011 439.317017 166.342987 444.059998 165.993011 448.882996 C 164.105988 449.146973 160.028992 449.004028 157.96701 448.98999 L 158.186005 391.981018 Z"/>
    <path id="path13" fill="#3b1a08" stroke="none" d="M 160.790009 370.132996 C 162.783997 369.643982 164.886993 370.271973 166.286987 371.773987 C 167.687988 373.276001 168.166992 375.41803 167.539001 377.372986 C 166.911987 379.328003 165.277008 380.791992 163.264008 381.200012 C 160.238007 381.812012 157.278015 379.890991 156.604004 376.879028 C 155.931 373.866028 157.790985 370.867004 160.790009 370.132996 Z"/>
</svg>
