<?xml version="1.0" encoding="UTF-8"?>
<!-- Generated by Pixelmator Pro 4.2 -->
<svg width="896" height="721" viewBox="0 0 896 721" xmlns="http://www.w3.org/2000/svg">
    <g id="Group">
        <path id="Path" fill="#d97706" stroke="none" d="M 468.747986 261.023804 C 535.40033 258.825623 603.715027 261.937378 670.587463 260.619446 C 698.667175 260.064697 729.995056 259.854187 757.99585 261.212708 C 758.730164 272.358459 757.500793 289.493347 756.907532 301.186951 C 773.91571 297.216492 795.661926 294.513733 813.024109 296.487 C 836.937317 299.175293 858.760193 311.373596 873.577454 330.333435 C 879.982605 338.40094 887.24884 350.553833 889.963562 360.429504 C 915.653992 453.874939 856.3396 533.347351 768.981445 562.900391 C 739.136475 572.998535 716.739563 572.302612 686.751221 568.255615 C 685.13678 571.221436 683.462524 574.153809 681.733154 577.055115 C 642.988403 642.27002 580.258606 689.730591 506.966614 709.281067 C 502.398193 710.491455 497.803589 711.596375 493.184937 712.59375 C 323.120575 749.025696 159.231857 661.270386 117.779526 489.113281 C 114.452545 475.30304 107.413422 461.80127 104.387833 447.254272 C 123.290207 452.863098 143.871704 463.437134 162.972626 467.120605 C 311.317047 495.729004 434.262939 401.417847 468.747986 261.023804 Z M 715.252014 507.515869 C 733.721497 508.640015 743.362854 507.197632 761.098022 500.909546 C 781.679443 491.263489 791.220337 484.112061 806.652344 467.259338 C 838.831604 432.118896 841.575073 356.05481 775.458435 360.604065 C 765.855347 361.883667 760.375671 363.074829 751.100281 366.411377 C 747.433594 401.73584 742.975403 429.126831 731.62616 463.073669 C 727.012451 476.87207 718.88031 494.485352 715.252014 507.515869 Z"/>
        <path id="path1" fill="#92400e" stroke="none" d="M 194.929474 11.518066 C 244.200653 9.384521 297.121704 19.831848 336.60083 50.939758 C 322.67569 63.931885 309.049622 77.244751 295.734497 90.863586 C 276.406281 82.556946 260.419464 75.697327 239.539001 72.726563 C 154.955322 60.688721 69.955429 111.287354 58.493858 199.822327 C 52.564644 243.013489 66.228973 285.850769 92.899979 320.14679 C 144.660965 386.705933 249.058411 398.97583 315.299408 347.020996 C 338.404236 328.898254 356.696716 303.107544 367.452667 275.936707 C 374.95575 256.988831 376.950531 240.466187 379.115112 220.511353 C 388.789917 208.712646 396.898163 200.783813 407.721069 189.944153 C 414.788879 182.397949 421.909271 174.899658 429.082245 167.454041 C 430.658447 175.399475 431.911804 183.407288 432.839813 191.453369 C 443.308685 284.25531 390.435516 383.455444 302.976837 419.114624 C 283.026794 427.246826 262.332886 431.848694 240.986084 434.211731 C 184.539505 440.84906 127.762863 424.838379 83.1008 389.686035 C -67.324486 268.966797 -0.920856 31.465637 194.929474 11.518066 Z"/>
        <path id="path2" fill="#d97706" stroke="none" d="M 429.500854 0.96051 C 439.407715 1.869385 482.543884 54.419861 480.96521 66.586914 C 473.280457 75.931641 459.053894 89.335327 449.989014 98.438416 C 430.644135 117.702209 411.466644 137.13562 392.459015 156.733948 L 283.210938 268.72052 C 263.038513 289.388245 243.38028 311.359131 222.184143 330.902588 C 219.04364 333.796753 215.116302 336.817566 210.691528 337.226624 C 198.832947 338.319641 148.117142 286.627991 136.119873 275.226318 C 124.242172 263.520752 88.357971 232.594727 84.007278 220.135864 C 84.423401 209.272339 139.731522 163.761047 145.878403 167.523376 C 164.606262 178.992188 188.332901 212.262085 205.190338 228.753479 C 262.457275 172.481567 317.320496 113.105164 373.89859 56.19928 C 389.108093 40.901306 414.11676 14.275696 429.500854 0.96051 Z"/>
    </g>
</svg>
