<?xml version="1.0" encoding="UTF-8"?>
<!-- Generated by Pixelmator Pro 4.2 -->
<svg width="963" height="170" viewBox="0 0 963 170" xmlns="http://www.w3.org/2000/svg">
    <g id="Group">
        <path id="Path" fill="#3b1a08" stroke="none" d="M 57.960632 7.118271 C 113.705688 8.890076 135.565857 67.630753 99.16214 107.295746 C 105.232193 112.602119 111.801773 117.431717 118.230171 122.309959 C 116.576782 125.609131 114.578712 128.615387 112.609512 131.736923 C 109.137184 129.123947 91.626907 115.643219 88.745224 114.861282 C 75.581764 120.791679 64.619797 123.451721 50.121754 122.012405 C -5.992259 116.443314 -17.207764 36.389114 32.707111 13.063858 C 41.883587 8.776199 47.864075 7.965439 57.960632 7.118271 Z M 78.610718 106.547173 C 70.434807 100.404289 66.759048 98.025116 57.459599 93.913612 C 51.265026 91.836639 50.226513 91.485886 43.744991 90.596184 L 43.735889 77.93222 C 62.477493 82.356483 73.260307 87.715958 89.214363 99.06208 C 98.527504 90.42762 103.946236 78.389267 104.234665 65.693428 C 105.130486 37.570358 84.471275 18.669281 57.294094 17.78717 C -8.621907 24.496445 4.417055 120.114555 65.155746 110.459816 C 69.791039 109.74469 74.313995 108.429825 78.610718 106.547173 Z"/>
        <path id="path1" fill="#92400e" stroke="none" d="M 914.641052 32.951782 C 916.800049 32.78775 918.962097 32.678406 921.12561 32.623825 C 931.929626 32.389923 942.360168 36.589554 949.986511 44.246185 C 977.849915 71.686012 958.534424 128.105255 915.172424 121.362518 C 900.768494 119.123093 896.790649 116.27021 887.652161 105.683319 L 887.676453 132.452042 L 887.773621 169.35376 L 875.527161 169.35228 L 875.407227 33.876328 L 887.047852 34.049423 C 887.131348 40.0345 887.204285 43.863556 887.996765 49.749939 C 896.427734 38.760681 900.956787 35.596527 914.641052 32.951782 Z M 924.64801 111.540787 C 961.145874 103.878052 960.515747 39.15239 914.05957 42.664154 C 890.998413 48.706871 883.794189 67.481926 888.534241 89.173538 C 892.240356 106.128128 909.562378 112.028137 924.64801 111.540787 Z"/>
        <path id="path2" fill="#92400e" stroke="none" d="M 632.309753 32.837891 C 650.91626 31.52153 659.918152 34.325775 672.665588 48.330353 L 673.321533 33.47406 C 677.510376 33.202255 681.465454 33.375366 685.652954 33.478592 C 685.99762 46.716446 684.940796 63.26413 685.212585 77.201904 C 685.431213 88.388634 685.936829 111.302444 684.971191 121.048279 C 681.158813 121.27597 676.856079 121.215271 672.999573 121.248627 C 673.101318 117.554688 673.880188 109.020493 672.027832 106.213196 L 670.025269 108.209732 C 657.516174 123.113113 636.192017 125.597 619.317871 117.108307 C 596.867126 105.815376 592.075439 73.122276 603.603699 52.549637 C 609.919739 41.27951 620.429199 36.035309 632.309753 32.837891 Z M 648.909058 111.033707 C 649.967346 110.634399 650.910156 110.317108 651.971497 109.937538 C 660.36145 107.033035 667.149719 100.745857 670.687195 92.603378 C 681.392639 68.395912 664.817627 40.631195 636.542786 43.388359 C 613.774597 48.470009 606.869507 67.408997 611.564026 88.408371 C 615.728638 107.027008 631.949951 112.98465 648.909058 111.033707 Z"/>
        <path id="path3" fill="#92400e" stroke="none" d="M 743.7771 32.887924 C 761.331482 31.359085 774.127441 34.300003 783.552917 50.635109 C 792.674744 39.140259 800.276794 32.096909 816.082031 32.468887 C 825.079346 32.389923 834.477478 34.846558 840.863342 41.680298 C 852.743896 54.392807 850.861267 75.041435 850.847534 91.138199 C 850.894592 101.079834 850.797485 111.021568 850.557617 120.960243 L 839.058105 121.297279 C 839.032349 109.377258 839.843079 69.463272 836.99939 59.829842 C 835.956299 56.355988 834.110107 53.17672 831.609497 50.548561 C 822.053467 40.559845 803.902466 40.631195 794.250732 50.386108 C 785.151733 59.580841 787.166443 75.46048 787.27124 87.473076 C 787.26062 98.551941 787.42157 110.066528 786.758057 121.083214 C 783.10199 121.171249 779.004211 120.938934 775.316284 120.812897 C 775.331482 113.578293 775.463562 106.440887 775.355774 98.977104 C 775.068787 79.269798 780.379822 43.356476 751.157471 42.705116 C 722.229675 42.05986 722.812744 68.97435 723.527893 89.940277 C 723.860413 99.667854 723.576477 111.044365 723.567383 121.101379 L 711.56842 120.890373 L 711.51825 33.852051 C 715.992676 33.60463 719.202332 33.883926 723.623535 34.201309 L 723.913452 45.977043 C 730.707825 38.613342 734.049561 35.690674 743.7771 32.887924 Z"/>
        <path id="path4" fill="#92400e" stroke="none" d="M 484.13501 7.101578 C 503.599335 5.867142 520.424866 13.93985 523.148621 34.867783 C 518.830688 34.94072 514.36853 34.887527 510.035339 34.893646 C 505.855438 21.830368 497.703857 15.861984 483.920959 17.287689 C 470.898651 18.634338 462.798645 26.122498 464.564392 39.582001 C 466.31192 52.894272 481.222961 56.964821 492.084747 59.627823 C 511.447327 64.46965 529.584656 74.279243 523.878967 97.636375 C 519.753845 114.525726 506.600952 119.862495 490.741058 122.000259 C 468.473969 122.018425 456.648102 115.236313 451.080597 92.856918 C 455.617218 92.528961 459.215546 92.747566 463.749084 92.954033 C 464.884735 96.236526 466.741638 101.638626 469.183014 104.259193 C 483.199768 119.302223 515.347717 111.943161 512.476685 88.130463 C 510.727661 75.3162 495.136414 70.981544 483.623352 68.420197 C 457.683594 62.646217 441.642975 45.114677 457.724579 19.00029 C 462.560303 11.147766 474.885651 8.173477 484.13501 7.101578 Z"/>
        <path id="path5" fill="#3b1a08" stroke="none" d="M 374.846375 1.004105 C 378.195679 0.715622 383.008636 0.809784 386.474854 0.770294 C 387.568024 22.017105 385.10083 51.489883 387.274994 71.720947 C 397.855865 62.069267 411.388275 45.134415 422.977264 33.876328 C 427.995178 33.279724 432.202301 33.376846 437.241486 33.395096 C 428.303375 45.034142 407.874969 66.23999 397.28952 77.264175 C 404.184052 83.636421 411.878662 92.395332 418.311615 99.408287 C 425.206116 106.648926 432.048981 113.938217 438.84024 121.27597 L 422.571899 121.089233 C 416.977051 113.581345 393.521179 88.674057 386.805817 83.473976 C 386.286591 95.44709 386.865051 108.472359 386.429321 120.841812 L 374.59433 120.802338 C 374.463745 81.920761 373.809387 39.676163 374.846375 1.004105 Z"/>
        <path id="path6" fill="#3b1a08" stroke="none" d="M 201.287506 33.811081 C 205.150024 33.554489 209.030731 33.703308 212.906906 33.768555 C 213.606842 40.593201 213.254608 52.516273 213.251541 59.764511 C 213.444382 80.171646 213.471725 100.580353 213.333557 120.987488 L 201.472763 121.218323 C 201.472763 117.082535 201.245026 112.684036 201.10231 108.528519 C 180.359589 129.09967 146.880051 128.102188 138.036072 95.673294 C 136.312851 89.3573 136.183823 37.222672 138.121094 34.302979 L 141.537216 33.723053 L 149.254639 33.835373 C 149.740494 50.310211 145.310165 91.226234 155.737701 103.544075 C 160.146774 108.753235 166.53569 111.229523 173.243439 111.557472 C 180.654129 111.921936 188.090668 110.042252 193.489655 104.726799 C 197.087967 101.186127 199.400314 96.511383 200.469162 91.604317 C 203.20816 79.034515 201.071915 48.635513 201.287506 33.811081 Z"/>
        <path id="path7" fill="#3b1a08" stroke="none" d="M 309.385834 32.936584 C 330.550598 31.38031 348.653046 40.386734 354.67453 61.888565 L 341.72818 61.876419 C 334.795746 47.622833 323.332733 40.429276 307.15094 43.913696 C 299.223999 45.54892 292.347748 50.436241 288.198273 57.385345 C 273.771576 81.445557 289.992889 120.242065 326.020111 109.720413 C 334.744141 105.797119 336.775543 102.836548 341.210419 94.710747 C 346.536591 94.150475 349.603485 94.264359 354.941742 94.43441 C 353.611725 97.792801 352.258942 101.35321 350.266998 104.365395 C 344.492981 113.071213 335.453125 119.082047 325.191101 121.037628 C 262.414886 133.35083 249.306091 41.563446 309.385834 32.936584 Z"/>
        <path id="path8" fill="#92400e" stroke="none" d="M 548.341431 12.140701 L 560.844421 12.22113 C 561.075256 18.860641 560.549927 26.243973 560.762451 33.452744 C 568.581604 33.463394 576.400757 33.566635 584.216797 33.762527 C 584.253296 36.762573 584.052856 40.128662 583.943481 43.156036 C 576.125916 42.995163 568.306824 42.673233 560.516479 43.303383 C 560.495239 53.320915 558.615601 101.93924 562.792419 107.412598 C 566.333008 112.050934 576.138062 110.922882 581.178711 110.921303 C 582.492004 111.117203 582.422241 111.240173 583.670227 111.836868 C 584.910645 114.55307 584.282104 117.657913 584.04071 120.724869 C 571.905151 120.668709 550.899719 123.791817 549.367859 106.630669 C 547.535217 86.121788 548.468933 64.503014 548.455322 43.792206 L 538.797546 43.115074 C 538.577332 39.966202 538.809692 36.674545 538.934204 33.507416 L 548.346008 33.314575 L 548.341431 12.140701 Z"/>
        <path id="path9" fill="#3b1a08" stroke="none" d="M 239.686295 34.114761 C 243.383286 33.975021 247.607162 34.139038 251.346649 34.19519 C 252.195343 55.564972 251.182663 77.256577 251.794556 98.653687 C 252.004089 105.983932 252.070847 113.185097 251.53949 120.507744 C 248.674469 120.908539 242.484451 120.691505 239.35379 120.670197 L 239.686295 34.114761 Z"/>
        <path id="path10" fill="#3b1a08" stroke="none" d="M 243.639893 0.943405 C 246.667313 0.200943 249.860245 1.154404 251.985825 3.434891 C 254.11293 5.715363 254.840195 8.967545 253.886734 11.935715 C 252.934753 14.903976 250.452393 17.126724 247.396103 17.746201 C 242.801788 18.675385 238.307709 15.758743 237.284378 11.18576 C 236.262558 6.611176 239.086533 2.057831 243.639893 0.943405 Z"/>
    </g>
</svg>
